<mxfile host="app.diagrams.net" modified="2023-04-05T22:28:25.421Z" agent="Mozilla/5.0 (Windows NT 10.0; Win64; x64) AppleWebKit/537.36 (KHTML, like Gecko) Chrome/107.0.0.0 Safari/537.36 Edg/107.0.1418.42" version="21.1.4" etag="JIPcWQlsw3k-X48Jcx-R" type="github">
  <diagram name="第 1 页" id="XORRzINQzMWKVqrraR4n">
    <mxGraphModel>
      <root>
        <mxCell id="0" />
        <mxCell id="1" parent="0" />
      </root>
    </mxGraphModel>
  </diagram>
</mxfile>
